<?xml version="1.0" encoding="UTF-8" standalone="no"?>
<!-- Created with Inkscape (http://www.inkscape.org/) -->

<svg
   width="540mm"
   height="540mm"
   viewBox="0 0 540.00001 540.00004"
   version="1.1"
   id="svg5"
   inkscape:version="1.2-alpha1 (5ff8e83de9, 2022-03-02, custom)"
   sodipodi:docname="launcher-inkscape.svg"
   inkscape:export-xdpi="37.629631"
   inkscape:export-ydpi="37.629631"
   xmlns:inkscape="http://www.inkscape.org/namespaces/inkscape"
   xmlns:sodipodi="http://sodipodi.sourceforge.net/DTD/sodipodi-0.dtd"
   xmlns:xlink="http://www.w3.org/1999/xlink"
   xmlns="http://www.w3.org/2000/svg"
   xmlns:svg="http://www.w3.org/2000/svg">
  <sodipodi:namedview
     id="namedview7"
     pagecolor="#ffffff"
     bordercolor="#666666"
     borderopacity="1.0"
     inkscape:pageshadow="2"
     inkscape:pageopacity="0.0"
     inkscape:pagecheckerboard="0"
     inkscape:document-units="mm"
     showgrid="false"
     units="mm"
     width="2048px"
     inkscape:snap-perpendicular="true"
     inkscape:snap-tangential="true"
     inkscape:zoom="0.25000001"
     inkscape:cx="39.999998"
     inkscape:cy="911.99996"
     inkscape:window-width="947"
     inkscape:window-height="1047"
     inkscape:window-x="2242"
     inkscape:window-y="22"
     inkscape:window-maximized="0"
     inkscape:current-layer="layer3"
     showguides="false"
     inkscape:guide-bbox="true"
     inkscape:deskcolor="#d1d1d1">
    <sodipodi:guide
       position="-483.65836,732.61674"
       orientation="0,1"
       id="guide2561" />
    <sodipodi:guide
       position="270.00002,270.00002"
       orientation="-1,0"
       id="guide2563"
       inkscape:label=""
       inkscape:locked="false"
       inkscape:color="rgb(0,134,229)" />
    <sodipodi:guide
       position="270.00002,270.00002"
       orientation="0,1"
       id="guide6235"
       inkscape:label=""
       inkscape:locked="false"
       inkscape:color="rgb(0,134,229)" />
    <sodipodi:guide
       position="0,540.00004"
       orientation="0,2040.9449"
       id="guide7847" />
    <sodipodi:guide
       position="540.00004,540.00004"
       orientation="2040.9449,0"
       id="guide7849" />
    <sodipodi:guide
       position="540.00004,0"
       orientation="0,-2040.9449"
       id="guide7851" />
    <sodipodi:guide
       position="0,0"
       orientation="-2040.9449,0"
       id="guide7853" />
    <sodipodi:guide
       position="411.16853,72.027207"
       orientation="0,-1"
       id="guide1504" />
  </sodipodi:namedview>
  <defs
     id="defs2">
    <inkscape:path-effect
       effect="mirror_symmetry"
       start_point="267.957,86.351319"
       end_point="267.957,453.22283"
       center_point="267.957,269.78707"
       id="path-effect1313"
       is_visible="true"
       lpeversion="1.2"
       lpesatellites=""
       mode="free"
       discard_orig_path="false"
       fuse_paths="false"
       oposite_fuse="false"
       split_items="false"
       split_open="false"
       link_styles="false" />
    <linearGradient
       id="train_1">
      <stop
         offset="0"
         style="stop-color:#49a92e;stop-opacity:1;"
         id="stop6164" />
      <stop
         offset="0.46600279"
         style="stop-color:#45955f;stop-opacity:1;"
         id="stop6166" />
      <stop
         offset="1"
         style="stop-color:#3d6ad0;stop-opacity:1;"
         id="stop6168" />
    </linearGradient>
    <linearGradient
       id="train_2">
      <stop
         offset="0"
         style="stop-color:#65e26b;stop-opacity:1;"
         id="stop6159" />
      <stop
         offset="0.2815505"
         style="stop-color:#5dcb7d;stop-opacity:1;"
         id="stop12742" />
      <stop
         offset="1"
         style="stop-color:#3d6ad0;stop-opacity:1;"
         id="stop6161" />
    </linearGradient>
    <inkscape:path-effect
       effect="clone_original"
       linkeditem="#path4665"
       id="path-effect1448"
       is_visible="true"
       lpeversion="1"
       method="d"
       attributes=""
       css_properties=""
       allow_transforms="true" />
    <linearGradient
       inkscape:collect="always"
       id="bot_shadow">
      <stop
         style="stop-color:#000000;stop-opacity:0.33010864;"
         offset="0"
         id="stop6338" />
      <stop
         style="stop-color:#000000;stop-opacity:0;"
         offset="1"
         id="stop6340" />
    </linearGradient>
    <linearGradient
       inkscape:collect="always"
       xlink:href="#train_1"
       id="linearGradient7105"
       gradientUnits="userSpaceOnUse"
       x1="135.94847"
       y1="114.75584"
       x2="423.31897"
       y2="393.29147" />
    <linearGradient
       inkscape:collect="always"
       xlink:href="#bot_shadow"
       id="linearGradient6344"
       x1="191.97121"
       y1="409.45819"
       x2="191.97121"
       y2="451.75845"
       gradientUnits="userSpaceOnUse" />
    <filter
       inkscape:collect="always"
       style="color-interpolation-filters:sRGB"
       id="filter6902"
       x="-0.0010876582"
       y="-0.0073443439"
       width="1.0021753"
       height="1.0146887">
      <feGaussianBlur
         inkscape:collect="always"
         stdDeviation="0.12944485"
         id="feGaussianBlur6904" />
    </filter>
    <linearGradient
       inkscape:collect="always"
       xlink:href="#train_2"
       id="linearGradient17697"
       gradientUnits="userSpaceOnUse"
       x1="135.94847"
       y1="114.75584"
       x2="423.31897"
       y2="393.29147" />
    <clipPath
       clipPathUnits="userSpaceOnUse"
       id="clipPath35344">
      <use
         x="0"
         y="0"
         xlink:href="#path4665"
         id="use35346"
         inkscape:label="bot shadow mask" />
    </clipPath>
    <linearGradient
       inkscape:collect="always"
       xlink:href="#train_2"
       id="linearGradient9964"
       gradientUnits="userSpaceOnUse"
       x1="135.94847"
       y1="114.75584"
       x2="423.31897"
       y2="393.29147" />
    <filter
       style="color-interpolation-filters:sRGB;"
       inkscape:label="Drop Shadow"
       id="filter12168"
       x="-0.15577032"
       y="-0.14740049"
       width="1.3157756"
       height="1.294801">
      <feFlood
         flood-opacity="0.243137"
         flood-color="rgb(0,0,0)"
         result="flood"
         id="feFlood12158" />
      <feComposite
         in="flood"
         in2="SourceGraphic"
         operator="in"
         result="composite1"
         id="feComposite12160" />
      <feGaussianBlur
         in="composite1"
         stdDeviation="22.5321"
         result="blur"
         id="feGaussianBlur12162" />
      <feOffset
         dx="1.47021"
         dy="0"
         result="offset"
         id="feOffset12164" />
      <feComposite
         in="offset"
         in2="offset"
         operator="atop"
         result="composite2"
         id="feComposite12166" />
    </filter>
  </defs>
  <g
     inkscape:groupmode="layer"
     id="layer2"
     inkscape:label="backups"
     style="display:none"
     sodipodi:insensitive="true">
    <path
       id="path57676"
       style="display:inline;fill:url(#linearGradient7105);fill-opacity:1;stroke:none;stroke-width:0.265;stroke-linecap:butt;stroke-linejoin:miter;stroke-miterlimit:4;stroke-dasharray:none;stroke-opacity:1"
       class="UnoptimicedTransforms"
       inkscape:label="left"
       d="m 206.5479,89.349079 c -79.52551,0.05975 -93.3018,55.416251 -93.3018,55.416251 -10.52033,21.25373 -14.085322,183.79334 -0.0165,219.65636 19.71955,50.26764 67.6057,48.03428 67.6057,48.03428 l -0.18811,5.32319 c 0,0 -27.98551,22.58906 -30.96813,26.20305 -2.98262,3.61401 -5.52731,10.77402 -5.52731,10.77402 H 277.5477 l 0,-42.30026 0,-323.106891 z m -31.41307,76.353481 h 51.42994 c 11.61709,0 20.96926,9.35217 20.96926,20.96926 v 50.92867 c 0,11.6171 -9.35217,20.96978 -20.96926,20.96978 h -51.42994 c -11.61709,0 -20.96978,-9.35268 -20.96978,-20.96978 v -50.92867 c 0,-11.61709 9.35269,-20.96926 20.96978,-20.96926 z m 4.3284,144.9324 c 13.97178,-2e-5 25.29822,11.32638 25.29818,25.29818 4e-5,13.97178 -11.3264,25.29821 -25.29818,25.29818 -13.97178,3e-5 -25.29822,-11.3264 -25.29818,-25.29818 -4e-5,-13.9718 11.3264,-25.2982 25.29818,-25.29818 z"
       transform="translate(-9.5909294,-2.9977601)"
       sodipodi:nodetypes="cccccscccccsssssssssscscs" />
  </g>
  <g
     inkscape:groupmode="layer"
     id="layer6"
     inkscape:label="bg"
     inkscape:highlight-color="#5a91c9"
     style="display:inline;fill:#29262f;fill-opacity:1">
    <rect
       style="display:inline;fill:#241f31;fill-opacity:1;stroke-width:0.264999;-inkscape-stroke:none;stop-color:#000000"
       id="rect145816"
       width="540"
       height="540"
       x="0"
       y="2.587899e-07"
       inkscape:label="bg_color"
       clip-path="none" />
    <rect
       style="display:none;fill:#000000;fill-opacity:1;stroke-width:0.264999;-inkscape-stroke:none;stop-color:#000000"
       id="rect1887"
       width="540"
       height="540"
       x="0"
       y="2.587899e-07"
       inkscape:label="rounded_square_mask"
       rx="80.34845"
       ry="80.34845" />
  </g>
  <g
     inkscape:groupmode="layer"
     id="layer4"
     inkscape:label="splash test"
     sodipodi:insensitive="true"
     style="display:none">
    <rect
       style="display:none;fill:#388e3c;fill-opacity:1;stroke-width:0.332517"
       id="rect160"
       width="540"
       height="540"
       x="0"
       y="-7.1054274e-15"
       rx="1.1174953"
       ry="1.2185993"
       inkscape:label="clr_primary_dark"
       sodipodi:insensitive="true" />
    <rect
       style="display:inline;fill:#4caf50;fill-opacity:1;stroke-width:0.332517"
       id="rect13402"
       width="540"
       height="540"
       x="0"
       y="-7.1054274e-15"
       rx="1.1174953"
       ry="1.2185993"
       inkscape:label="clr_primary"
       sodipodi:insensitive="true" />
  </g>
  <path
     id="rect229107"
     style="display:none;fill:#888888;fill-opacity:1;stroke-width:0.264999;-inkscape-stroke:none;stop-color:#000000"
     d="M 0,0 V 540.00011 H 272.20147 A 267.79846,269.99999 0 0 1 4.402832,270.00006 267.79846,269.99999 0 0 1 272.20147,0 Z M 272.20147,0 A 267.79846,269.99999 0 0 1 540.00011,270.00006 V 0 Z M 540.00011,270.00006 A 267.79846,269.99999 0 0 1 272.20147,540.00011 h 267.79864 z"
     inkscape:label="round_icon_test" />
  <g
     inkscape:groupmode="layer"
     id="layer3"
     inkscape:label="fg"
     class="UnoptimicedTransforms"
     transform="matrix(1.0743433,0,0,1.0743433,-18.359172,-18.944112)"
     style="display:inline"
     inkscape:path-effect="#path-effect1313">
    <path
       id="rect1842"
       style="display:inline;fill:url(#linearGradient9964);fill-opacity:1;stroke:none;stroke-width:0.265;stroke-linecap:butt;stroke-linejoin:miter;stroke-miterlimit:4;stroke-dasharray:none;stroke-opacity:1;filter:url(#filter12168)"
       class="UnoptimicedTransforms"
       inkscape:label="train shadow"
       d="m 206.5479,89.349079 c -79.52551,0.05975 -93.3018,55.416251 -93.3018,55.416251 -10.52033,21.25373 -14.085322,183.79334 -0.0165,219.65636 19.71955,50.26764 66.61246,46.12224 69.29425,47.95118 1.07253,2.98937 -1.34389,4.83334 -1.87666,5.40629 -0.59386,0.63864 -25.52411,23.34264 -28.76671,26.79671 -2.78096,2.96233 -8.14632,9.1943 -7.72873,10.18036 0.30914,0.82537 0.46094,0.99927 1.54832,1.46436 H 277.5477 v -43.76462 l 2.3e-4,-323.106891 z m 142.00006,0 c 79.52551,0.05975 93.3018,55.416251 93.3018,55.416251 10.52033,21.25373 14.08532,183.79334 0.0165,219.65636 -19.71955,50.26764 -66.61246,46.12224 -69.29425,47.95118 -1.07253,2.98937 1.34389,4.83334 1.87666,5.40629 0.59386,0.63864 25.52411,23.34264 28.76671,26.79671 2.78096,2.96233 8.14632,9.1943 7.72873,10.18036 -0.30914,0.82537 -0.46094,0.99927 -1.54832,1.46436 H 277.54816 v -43.76462 l -2.3e-4,-323.106891 z m 0,0 c 79.52551,0.05975 93.3018,55.416251 93.3018,55.416251 10.52033,21.25373 14.08532,183.79334 0.0165,219.65636 -19.71955,50.26764 -66.61246,46.12224 -69.29425,47.95118 -1.07253,2.98937 1.34389,4.83334 1.87666,5.40629 0.59386,0.63864 25.52411,23.34264 28.76671,26.79671 2.78096,2.96233 8.14632,9.1943 7.72873,10.18036 -0.30914,0.82537 -0.46094,0.99927 -1.54832,1.46436 H 277.54816 v -43.76462 l -2.3e-4,-323.106891 z m -142.00006,0 c -79.52551,0.05975 -93.3018,55.416251 -93.3018,55.416251 -10.52033,21.25373 -14.085321,183.79334 -0.0165,219.65636 19.71955,50.26764 66.61246,46.12224 69.29425,47.95118 1.07253,2.98937 -1.34389,4.83334 -1.87666,5.40629 -0.59386,0.63864 -25.52411,23.34264 -28.76671,26.79671 -2.78096,2.96233 -8.14632,9.1943 -7.72873,10.18036 0.30914,0.82537 0.46094,0.99927 1.54832,1.46436 H 277.5477 v -43.76462 l 2.3e-4,-323.106891 z"
       clip-path="none"
       sodipodi:nodetypes="ccccc"
       inkscape:original-d="m 173.11411,266.1568 h 31.41926 v 27.47416 h -31.41926 z"
       inkscape:path-effect="#path-effect1448"
       transform="translate(-9.5909293,-2.9977602)" />
    <path
       style="display:inline;fill:url(#linearGradient17697);fill-opacity:1;stroke:none;stroke-width:0.265;stroke-linecap:butt;stroke-linejoin:miter;stroke-miterlimit:4;stroke-dasharray:none;stroke-opacity:1"
       d="m 206.5479,89.349079 c -79.52551,0.05975 -93.3018,55.416251 -93.3018,55.416251 -10.52033,21.25373 -14.085322,183.79334 -0.0165,219.65636 19.71955,50.26764 66.61246,46.12224 69.29425,47.95118 1.07253,2.98937 -1.34389,4.83334 -1.87666,5.40629 -0.59386,0.63864 -25.52411,23.34264 -28.76671,26.79671 -2.78096,2.96233 -8.14632,9.1943 -7.72873,10.18036 0.30914,0.82537 0.46094,0.99927 1.54832,1.46436 H 277.5477 v -43.76462 l 2.3e-4,-323.106891 z m 142.00006,0 c 79.52551,0.05975 93.3018,55.416251 93.3018,55.416251 10.52033,21.25373 14.08532,183.79334 0.0165,219.65636 -19.71955,50.26764 -66.61246,46.12224 -69.29425,47.95118 -1.07253,2.98937 1.34389,4.83334 1.87666,5.40629 0.59386,0.63864 25.52411,23.34264 28.76671,26.79671 2.78096,2.96233 8.14632,9.1943 7.72873,10.18036 -0.30914,0.82537 -0.46094,0.99927 -1.54832,1.46436 H 277.54816 v -43.76462 l -2.3e-4,-323.106891 z"
       transform="translate(-9.5909293,-2.9977602)"
       id="path4665"
       inkscape:label="train"
       class="UnoptimicedTransforms"
       sodipodi:nodetypes="ccccsscccccc"
       inkscape:original-d="m 206.5479,89.349079 c -79.52551,0.05975 -93.3018,55.416251 -93.3018,55.416251 -10.52033,21.25373 -14.085322,183.79334 -0.0165,219.65636 19.71955,50.26764 66.61246,46.12224 69.29425,47.95118 1.07253,2.98937 -1.34389,4.83334 -1.87666,5.40629 -0.59386,0.63864 -25.52411,23.34264 -28.76671,26.79671 -2.78096,2.96233 -8.14632,9.1943 -7.72873,10.18036 0.30914,0.82537 0.46094,0.99927 1.54832,1.46436 H 277.5477 v -43.76462 l 2.3e-4,-323.106891 z" />
    <path
       style="font-variation-settings:normal;display:inline;opacity:1;vector-effect:none;fill:#000000;fill-opacity:0.402243;stroke:none;stroke-width:0.265;stroke-linecap:butt;stroke-linejoin:miter;stroke-miterlimit:4;stroke-dasharray:none;stroke-dashoffset:0;stroke-opacity:1;-inkscape-stroke:none;stop-color:#000000;stop-opacity:1"
       d="m 179.46323,310.63496 c 13.97178,-2e-5 25.29822,11.32638 25.29818,25.29818 4e-5,13.97178 -11.3264,25.29821 -25.29818,25.29818 -13.97178,3e-5 -25.29822,-11.3264 -25.29818,-25.29818 -4e-5,-13.9718 11.3264,-25.2982 25.29818,-25.29818 z m 196.1694,0 c -13.97178,-2e-5 -25.29822,11.32638 -25.29818,25.29818 -4e-5,13.97178 11.3264,25.29821 25.29818,25.29818 13.97178,3e-5 25.29822,-11.3264 25.29818,-25.29818 4e-5,-13.9718 -11.3264,-25.2982 -25.29818,-25.29818 z"
       transform="translate(-9.5909294,-2.9977602)"
       id="path33559"
       inkscape:label="lights"
       class="UnoptimicedTransforms"
       inkscape:original-d="m 179.46323,310.63496 c 13.97178,-2e-5 25.29822,11.32638 25.29818,25.29818 4e-5,13.97178 -11.3264,25.29821 -25.29818,25.29818 -13.97178,3e-5 -25.29822,-11.3264 -25.29818,-25.29818 -4e-5,-13.9718 11.3264,-25.2982 25.29818,-25.29818 z" />
    <path
       style="display:inline;fill:#000000;fill-opacity:0.473822;stroke:none;stroke-width:0.265;stroke-linecap:butt;stroke-linejoin:miter;stroke-miterlimit:4;stroke-dasharray:none;stroke-opacity:1"
       d="m 175.13483,165.70256 h 51.42994 c 11.61709,0 20.96926,9.35217 20.96926,20.96926 v 50.92867 c 0,11.6171 -9.35217,20.96978 -20.96926,20.96978 h -51.42994 c -11.61709,0 -20.96978,-9.35268 -20.96978,-20.96978 v -50.92867 c 0,-11.61709 9.35269,-20.96926 20.96978,-20.96926 z m 204.8262,0 h -51.42994 c -11.61709,0 -20.96926,9.35217 -20.96926,20.96926 v 50.92867 c 0,11.6171 9.35217,20.96978 20.96926,20.96978 h 51.42994 c 11.61709,0 20.96978,-9.35268 20.96978,-20.96978 v -50.92867 c 0,-11.61709 -9.35269,-20.96926 -20.96978,-20.96926 z"
       transform="translate(-9.5909294,-2.9977602)"
       id="path33557"
       inkscape:label="window"
       class="UnoptimicedTransforms"
       inkscape:original-d="m 175.13483,165.70256 h 51.42994 c 11.61709,0 20.96926,9.35217 20.96926,20.96926 v 50.92867 c 0,11.6171 -9.35217,20.96978 -20.96926,20.96978 h -51.42994 c -11.61709,0 -20.96978,-9.35268 -20.96978,-20.96978 v -50.92867 c 0,-11.61709 9.35269,-20.96926 20.96978,-20.96926 z" />
    <path
       style="display:inline;mix-blend-mode:normal;fill:url(#linearGradient6344);fill-opacity:1;stroke-width:0.264999;-inkscape-stroke:none;filter:url(#filter6902);stop-color:#000000"
       id="rect5782"
       width="142.81468"
       height="42.300259"
       x="125.14208"
       y="409.45819"
       inkscape:label="bot shadow"
       class="UnoptimicedTransforms"
       clip-path="url(#clipPath35344)"
       sodipodi:type="rect"
       d="m 125.14208,409.45819 h 142.81468 v 42.30026 H 125.14208 Z m 285.62984,0 H 267.95724 v 42.30026 h 142.81468 z" />
  </g>
</svg>
